<svg xmlns="http://www.w3.org/2000/svg" viewBox="0 0 32 32" fill="none">
  <path fill="#24292F" d="M16 4C9.4 4 4 9.6 4 16.4c0 5.5 3.5 10.1 8.4 11.7.6.1.9-.3.9-.6 0-.3 0-1.1 0-2.2-3.4.7-4.1-1.6-4.1-1.6-.5-1.4-1.3-1.8-1.3-1.8-1.1-.7.1-.7.1-.7 1.2.1 1.8 1.2 1.8 1.2 1.1 1.8 2.8 1.3 3.5 1 .1-.8.4-1.3.8-1.6-2.7-.3-5.5-1.3-5.5-5.9 0-1.3.5-2.4 1.2-3.2-.1-.3-.5-1.5.1-3.2 0 0 1-.3 3.3 1.2a11.5 11.5 0 0 1 6 0c2.3-1.5 3.3-1.2 3.3-1.2.6 1.7.2 2.9.1 3.2.8.8 1.2 1.9 1.2 3.2 0 4.6-2.8 5.6-5.5 5.9.4.4.8 1.1.8 2.2 0 1.6 0 2.9 0 3.3 0 .3.2.7.9.6A12 12 0 0 0 28 16.4C28 9.6 22.6 4 16 4Z"/>
</svg>
