<svg xmlns="http://www.w3.org/2000/svg" viewBox="0 0 24 24" role="img" aria-label="OpenClaw">
  <rect width="24" height="24" rx="6" fill="#dc2626"/>
  <path fill="#fff" d="M12 6.5c-2.4 0-4.3 1.6-4.8 3.8-.8-.3-1.5.2-1.5 1 0 .6.4 1.1 1 1.2-.1.3-.1.6-.1.9 0 2.8 2.4 5.1 5.4 5.1s5.4-2.3 5.4-5.1c0-.3 0-.6-.1-.9.6-.1 1-.6 1-1.2 0-.8-.7-1.3-1.5-1 -.5-2.2-2.4-3.8-4.8-3.8Zm-2.8 4.2a1 1 0 1 1 0-2 1 1 0 0 1 0 2Zm5.6 0a1 1 0 1 1 0-2 1 1 0 0 1 0 2ZM8.8 14.8h6.4c-.5 1-1.5 1.7-2.7 1.9-.4.1-.9.1-1.3 0-1.2-.2-2.2-.9-2.7-1.9Z"/>
</svg>
